<svg id="Layer_1" data-name="Layer 1" xmlns="http://www.w3.org/2000/svg" viewBox="0 0 270 45.94"><defs><style>.cls-1{fill:#212529;}.cls-2{fill:#6c757d;}.cls-3{fill:#007bff;}</style></defs><title>DropNotes</title><path class="cls-1" d="M43.16.06H52.7c11.19,0,18.08,7.46,18.08,17.23S63.23,34.52,52.89,34.52H43.16Zm5.15,4.72v25h4.06c7.93,0,13.22-5.38,13.22-12.46S60.82,4.78,52.18,4.78Z" transform="translate(0 -0.06)"/><path class="cls-1" d="M74.46,10.92h5.05v3.73c1.27-2.41,3.59-3.73,6.89-3.73h2.27v4.82H85.6c-4.3,0-6,2.17-6,7.08V34.52h-5.1Z" transform="translate(0 -0.06)"/><path class="cls-1" d="M90.61,22.72A12.25,12.25,0,1,1,102.84,35,12.15,12.15,0,0,1,90.61,22.72Zm19.5,0a7.25,7.25,0,1,0-14.49,0,7.25,7.25,0,1,0,14.49,0Z" transform="translate(0 -0.06)"/><path class="cls-1" d="M124.07,31.6V46h-5V10.92h5v3.3A9.94,9.94,0,0,1,132,10.45c6.18,0,11.75,4.72,11.75,12.27A11.87,11.87,0,0,1,132,35,10,10,0,0,1,124.07,31.6Zm14.63-8.92a7.46,7.46,0,1,0-14.92,0,7.46,7.46,0,1,0,14.92,0Z" transform="translate(0 -0.06)"/><path class="cls-1" d="M148.08.06h5.81l17.47,26.06V.06h5.1V34.52H171L153.22,8V34.52h-5.15Z" transform="translate(0 -0.06)"/><path class="cls-1" d="M180.86,22.72A12.25,12.25,0,1,1,193.09,35,12.15,12.15,0,0,1,180.86,22.72Zm19.5,0a7.25,7.25,0,1,0-14.49,0,7.25,7.25,0,1,0,14.49,0Z" transform="translate(0 -0.06)"/><path class="cls-1" d="M207.2,10.92h4V5.35l5.1-2.78v8.36h5v4.53h-5v9.39c0,4.25.66,4.91,5,4.91v4.77h-.76c-7.18,0-9.35-2.27-9.35-9.63V15.45h-4Z" transform="translate(0 -0.06)"/><path class="cls-1" d="M223.45,22.82a12.15,12.15,0,0,1,12.27-12.37,11.71,11.71,0,0,1,12.13,12v2H228.31c.66,3.63,3.49,6,7.6,6a7.4,7.4,0,0,0,6.89-4.25L247,28.58a11.93,11.93,0,0,1-11,6.42C228.45,35,223.45,29.66,223.45,22.82Zm5.1-2.64h14.16c-.76-3.4-3.35-5.29-7-5.29A7.34,7.34,0,0,0,228.55,20.17Z" transform="translate(0 -0.06)"/><path class="cls-1" d="M249.75,29.66l4.53-2.45a6.83,6.83,0,0,0,6.23,3.4c2.93,0,4.44-1.42,4.44-3.07,0-1.93-2.83-2.36-5.85-3-4-.8-8.26-2.12-8.26-7,0-3.73,3.59-7.18,9.21-7.13,4.58,0,7.65,1.7,9.63,4.58l-4.25,2.31A6,6,0,0,0,260,14.6c-2.79,0-4.11,1.27-4.11,2.83s2,2.08,5.62,2.88c4,.85,8.45,2.17,8.45,7.13,0,3.54-3.16,7.6-9.73,7.55C255.18,35,251.78,33.15,249.75,29.66Z" transform="translate(0 -0.06)"/><rect class="cls-2" width="8.63" height="8.63"/><rect class="cls-2" x="25.9" width="8.63" height="8.63"/><rect class="cls-2" y="25.9" width="8.63" height="8.63"/><rect class="cls-2" x="25.9" y="25.9" width="8.63" height="8.63"/><rect class="cls-3" x="8.63" y="8.7" width="17.27" height="17.27" transform="translate(17.31 -7.2) rotate(45)"/></svg>